{"title":"Rangaa Patangaa 2016 Marathi DesiPDVD x264 AAC [TMB]","uid":15552195,"size":779147987,"categoryP":"video","categoryS":"movies","magnet":"?xt=urn:btih:816f27326e7bc20d12449ee69a3864beca4a18bb&amp;dn=Rangaa+Patangaa+2016+Marathi+DesiPDVD+x264+AAC+%5BTMB%5D&amp;tr=udp%3A%2F%2Ftracker.leechers-paradise.org%3A6969&amp;tr=udp%3A%2F%2Fzer0day.ch%3A1337&amp;tr=udp%3A%2F%2Fopen.demonii.com%3A1337&amp;tr=udp%3A%2F%2Ftracker.coppersurfer.tk%3A6969&amp;tr=udp%3A%2F%2Fexodus.desync.com%3A6969","seeders":1,"leechers":0,"uploader":"Manoj_vb","files":2,"time":1471036127,"description":"http://i1306.photobucket.com/albums/s570/zyx55e/44_zpsc46e809d.gif\r\n \nhttp://s25.postimg.org/rdl2v2x33/Rangaa_Patanga_Marathi_Movie_Review.jpg\r\n \nhttp://s25.postimg.org/lru2da70f/vlcsnap_0941_12_07_21h37m58s101.png\r\n \nhttp://s25.postimg.org/5zz1q8lxb/vlcsnap_1788_11_03_03h38m17s194.png\r\n \nhttp://s25.postimg.org/56mfxmfwf/vlcsnap_1873_09_08_11h43m23s921.png\r\n \nhttp://s25.postimg.org/napgi9dkv/vlcsnap_5711_06_10_22h26m19s862.png\r\n \nhttp://s25.postimg.org/j2uo9ic5b/vlcsnap_7134_10_09_10h39m13s111.png\r\n \nhttp://s25.postimg.org/uo4uh7xmn/vlcsnap_7171_02_24_01h04m04s551.png\r\n \nhttp://s25.postimg.org/tscyfidbz/vlcsnap_8108_04_30_11h15m51s471.png\r\n \nhttp://s25.postimg.org/n36ezhrzz/vlcsnap_9933_07_27_16h29m24s886.png\r\n \nhttp://i1306.photobucket.com/albums/s570/zyx55e/oie_11162011MOJeDGQI_zpsc25b2b81.gif\r\n\r\nGeneral\r\nComplete name               : Rangaa Patangaa 2016 DesiPDVD x264 AAC [TMB].mp4\r\nFormat                      : MPEG-4\r\nFormat profile              : Base Media\r\nCodec ID                    : isom (isom/iso2/avc1/mp41)\r\nFile size                   : 736 MiB\r\nDuration                    : 1h 38mn\r\nOverall bit rate            : 1 042 Kbps\r\nWriting application         : Lavf56.36.100\r\n\r\nVideo\r\nFormat                      : AVC\r\nFormat/Info                 : Advanced Video Codec\r\nFormat profile              :   \r\nFormat settings, CABAC      : Yes\r\nFormat settings, ReFrames   : 4 frames\r\nCodec ID                    : avc1\r\nCodec ID/Info               : Advanced Video Coding\r\nDuration                    : 1h 38mn\r\nBit rate                    : 920 Kbps\r\nWidth                       : 704 pixels\r\nHeight                      : 316 pixels\r\nDisplay aspect ratio        : 2.228\r\nFrame rate mode             : Variable\r\nFrame rate                  : 24.611 fps\r\nMinimum frame rate          : 0.556 fps\r\nMaximum frame rate          : 25.000 fps\r\nOriginal frame rate         : 25.000 fps\r\nColor space                 : YUV\r\nChroma subsampling          : 4:2:0\r\nBit depth                   : 8 bits\r\nScan type                   : Progressive\r\nBits/(Pixel*Frame)          : 0.168\r\nStream size                 : 640 MiB (87%)\r\nWriting library             : x264 core 146 r2538 121396c\r\n\r\nAudio\r\nFormat                      : AAC\r\nFormat/Info                 : Advanced Audio Codec\r\nFormat profile              : LC\r\nCodec ID                    : 40\r\nDuration                    : 1h 38mn\r\nBit rate mode               : Constant\r\nBit rate                    : 128 Kbps\r\nChannel(s)                  : 2 channels\r\nChannel positions           : Front: L R\r\nSampling rate               : 48.0 KHz\r\nFrame rate                  : 46.875 fps (1024 spf)\r\nCompression mode            : Lossy\r\nStream size                 : 90.4 MiB (12%)\r\n\r\nSample in Torrent...\r\n\r\nSource : SaketSaket\r\n\r\nRipper : Manojvb\r\n\r\nSeeding 24x7... Extreme Seeding...\r\n \nhttp://i1306.photobucket.com/albums/s570/zyx55e/oie_1117625zVIGKvnK_zpsc8b6e055.gif","torrent":{"xt":"urn:btih:816f27326e7bc20d12449ee69a3864beca4a18bb","amp;dn":"Rangaa+Patangaa+2016+Marathi+DesiPDVD+x264+AAC+%5BTMB%5D","amp;tr":["udp%3A%2F%2Ftracker.leechers-paradise.org%3A6969","udp%3A%2F%2Fzer0day.ch%3A1337","udp%3A%2F%2Fopen.demonii.com%3A1337","udp%3A%2F%2Ftracker.coppersurfer.tk%3A6969","udp%3A%2F%2Fexodus.desync.com%3A6969"],"infoHash":"816f27326e7bc20d12449ee69a3864beca4a18bb","infoHashBuffer":{"type":"Buffer","data":[129,111,39,50,110,123,194,13,18,68,158,230,154,56,100,190,202,74,24,187]},"announce":[],"urlList":[]}}